<svg xmlns="http://www.w3.org/2000/svg" viewBox="0 0 256 256" fill="none">
  <!-- Square icon with padding -->
  <g transform="translate(16, 48) scale(0.44)">
    <path d="M256 196c-30-30-55-48-80-48-44 0-80 40-80 88s36 88 80 88c25 0 50-18 80-48 30 30 55 48 80 48 44 0 80-40 80-88s-36-88-80-88c-25 0-50 18-80 48z" fill="none" stroke="#E5A630" stroke-width="28" stroke-linecap="round" stroke-linejoin="round"/>
    <circle cx="136" cy="236" r="14" fill="#E5A630"/>
    <circle cx="196" cy="186" r="14" fill="#E5A630"/>
    <circle cx="256" cy="236" r="14" fill="#D4922A"/>
    <circle cx="316" cy="286" r="14" fill="#E5A630"/>
    <circle cx="376" cy="236" r="14" fill="#E5A630"/>
    <circle cx="256" cy="236" r="22" fill="none" stroke="#D4922A" stroke-width="4"/>
    <line x1="256" y1="210" x2="256" y2="218" stroke="#D4922A" stroke-width="4" stroke-linecap="round"/>
    <line x1="256" y1="254" x2="256" y2="262" stroke="#D4922A" stroke-width="4" stroke-linecap="round"/>
    <line x1="230" y1="236" x2="238" y2="236" stroke="#D4922A" stroke-width="4" stroke-linecap="round"/>
    <line x1="274" y1="236" x2="282" y2="236" stroke="#D4922A" stroke-width="4" stroke-linecap="round"/>
  </g>
</svg>
